<?xml version="1.0" encoding="UTF-8"?>
<svg version="1.1" xmlns="http://www.w3.org/2000/svg" width="512" height="512">
<path d="M0 0 C2.00950592 1.16953501 4.01989909 2.33754709 6.03125 3.50390625 C9.99608241 5.80633102 13.95521368 8.11813022 17.91015625 10.4375 C24.21570419 14.1321331 30.54294436 17.78852681 36.875 21.4375 C37.95515381 22.06003662 39.03530762 22.68257324 40.14819336 23.32397461 C42.33796334 24.58576826 44.52782355 25.84740534 46.71777344 27.10888672 C52.14659942 30.23680148 57.57319281 33.36858448 63 36.5 C65.16665583 37.75001879 67.3333225 39.00001878 69.5 40.25 C73.83333333 42.75 78.16666667 45.25 82.5 47.75 C83.57266113 48.36883057 84.64532227 48.98766113 85.75048828 49.62524414 C87.91557071 50.87435518 90.08060982 52.12354129 92.24560547 53.37280273 C97.68615706 56.51202309 103.12747216 59.64990563 108.5703125 62.78515625 C119.36901945 69.00675241 130.16185963 75.23852483 140.9375 81.5 C141.88963379 82.05115479 142.84176758 82.60230957 143.82275391 83.17016602 C161.88407377 93.68601654 177.26112223 103.68416827 183 125 C186.27858494 138.04742987 184.59765719 153.18023682 178.421875 165.02734375 C176.73452554 167.79778915 174.93776256 170.39975452 173 173 C172.49984375 173.70640625 171.9996875 174.4128125 171.484375 175.140625 C161.58667672 187.83767229 143.11817328 195.20863823 129.45214844 203.02392578 C123.91927655 206.19104495 118.39694505 209.37637922 112.875 212.5625 C111.25996582 213.49376709 111.25996582 213.49376709 109.61230469 214.44384766 C102.39576706 218.60807002 95.1938734 222.79676483 88 227 C70.13726505 237.43485593 52.2066174 247.75051486 34.23965454 258.00466919 C25.62720163 262.92036816 17.02707177 267.85688045 8.4375 272.8125 C7.36483887 273.42971924 6.29217773 274.04693848 5.18701172 274.68286133 C0.29472367 277.50156436 -4.58360098 280.33813032 -9.42578125 283.2421875 C-25.86103544 293.05577054 -41.11123196 298.78993826 -60.5625 294.9375 C-74.68952935 291.25518054 -86.36000274 282.89749589 -94.4296875 270.79296875 C-99.6284194 261.54646799 -102.14944625 252.60546154 -102.14717102 242.10255432 C-102.15084771 241.19359325 -102.1545244 240.28463218 -102.1583125 239.34812683 C-102.16934558 236.29531128 -102.1731926 233.24252977 -102.17700195 230.18969727 C-102.18326704 228.0033304 -102.18991388 225.81696461 -102.19691467 223.63059998 C-102.21795753 216.44254294 -102.22831941 209.2544857 -102.23828125 202.06640625 C-102.24232916 199.59024482 -102.24644609 197.11408349 -102.25063133 194.63792229 C-102.2685929 183.66832755 -102.28296938 172.69873741 -102.29080774 161.72913056 C-102.29224616 159.72249654 -102.29369754 157.71586252 -102.29516602 155.70922852 C-102.29564976 155.04500285 -102.2961335 154.38077718 -102.2966319 153.69642346 C-102.30492097 142.95157313 -102.33023855 132.20683453 -102.36274669 121.46203292 C-102.39589206 110.41596891 -102.41350349 99.36996441 -102.41702431 88.32385105 C-102.41937113 82.12786492 -102.42828346 75.9320553 -102.45348549 69.73611641 C-102.47683545 63.90104178 -102.48097148 58.06625899 -102.47072411 52.23114967 C-102.47023027 50.09673337 -102.47650545 47.96230236 -102.49028015 45.82793045 C-102.60706819 26.64876945 -99.76786526 11.68604339 -86.265625 -2.8984375 C-58.80381592 -28.37163282 -28.1486342 -16.59426578 0 0 Z " fill="#000000" transform="translate(174,117)"/>
<path d="M0 0 C4.52596523 2.30233884 7.10111793 5.70267481 8.859375 10.3515625 C9.42206989 14.08890385 9.39965933 17.77437604 9.36730957 21.54833984 C9.37354953 22.6682752 9.3797895 23.78821056 9.38621855 24.94208336 C9.40215956 28.6907704 9.38953921 32.43880825 9.37695312 36.1875 C9.38237374 38.87666722 9.38935145 41.56578988 9.39819336 44.25494385 C9.41596399 50.79831334 9.41214517 57.34149913 9.4005428 63.88487577 C9.39150298 69.2036003 9.39028684 74.52227341 9.39463806 79.84100342 C9.39525099 80.59848291 9.39586393 81.3559624 9.39649543 82.13639581 C9.39777436 83.67528297 9.39907121 85.21417011 9.4003858 86.75305724 C9.41178732 101.17744555 9.39868462 115.60173211 9.37718433 130.02610373 C9.35931372 142.39831281 9.36241794 154.77037176 9.38085938 167.14257812 C9.40227366 181.51594578 9.41068873 195.88922429 9.39841032 210.26260567 C9.39713615 211.79577762 9.39587866 213.3289496 9.39463806 214.86212158 C9.39402096 215.6164379 9.39340386 216.37075421 9.39276806 217.1479286 C9.38931683 222.45921622 9.39513859 227.77044722 9.40455627 233.08172607 C9.41578386 239.55594543 9.41272038 246.02997085 9.3914333 252.50416803 C9.38093285 255.80639549 9.37894278 259.1082336 9.39002991 262.41046906 C9.40094745 265.9922309 9.38726581 269.57308149 9.36730957 273.15478516 C9.37623246 274.19574026 9.38515534 275.23669537 9.39434862 276.30919456 C9.32700437 282.5334011 8.56302801 286.2881724 4.859375 291.3515625 C-0.12887296 295.32180068 -4.21858437 295.9947628 -10.5546875 295.734375 C-15.81822432 294.95518073 -18.34485774 292.40541643 -21.453125 288.2890625 C-23.57579695 284.59404095 -24.26565577 281.97439751 -24.27484608 277.78807545 C-24.27930392 276.84651909 -24.28376176 275.90496273 -24.28835469 274.93487436 C-24.28817033 273.8985138 -24.28798597 272.86215324 -24.28779602 271.79438782 C-24.29147271 270.69490993 -24.2951494 269.59543205 -24.2989375 268.46263665 C-24.30999617 264.75934751 -24.31382188 261.0560864 -24.31762695 257.3527832 C-24.32388993 254.70525444 -24.33052363 252.05772869 -24.33753967 249.41020203 C-24.35730245 241.45139381 -24.36737018 233.49258433 -24.37626746 225.53375772 C-24.38065078 221.78560334 -24.38601749 218.03745037 -24.39125633 214.2892971 C-24.40826864 201.82912775 -24.42276266 189.36895928 -24.43000507 176.9087801 C-24.43191496 173.6752707 -24.43383529 170.44176132 -24.43579102 167.20825195 C-24.43627476 166.40458095 -24.4367585 165.60090995 -24.4372569 164.77288529 C-24.44555664 151.75485224 -24.47089259 138.7369111 -24.50337169 125.71891818 C-24.53644692 112.35299605 -24.55445426 98.98712062 -24.55764931 85.62115735 C-24.55981402 78.11691571 -24.56855672 70.61280808 -24.59411049 63.10860634 C-24.61582388 56.71742304 -24.62386484 50.3264063 -24.61414371 43.9351903 C-24.60960071 40.67537528 -24.61366946 37.41597542 -24.63090515 34.15619278 C-24.6485643 30.61838989 -24.64154621 27.08145852 -24.62837219 23.5436554 C-24.63934144 22.51844845 -24.65031068 21.4932415 -24.66161233 20.43696767 C-24.60602688 14.253275 -23.73195583 9.49122258 -20.140625 4.3515625 C-14.26602535 -1.10342289 -7.8039794 -2.36397916 0 0 Z " fill="#000000" transform="translate(431.140625,108.6484375)"/>
</svg>
