<?xml version="1.0" encoding="UTF-8"?>
<svg version="1.1" xmlns="http://www.w3.org/2000/svg" width="1024" height="1024">
  <path d="M0 0 C3.99484347 0.71852927 6.81706673 1.82452742 10.33203125 3.88671875 C11.36537598 4.48814697 12.3987207 5.0895752 13.46337891 5.70922852 C14.56858887 6.36205811 15.67379883 7.0148877 16.8125 7.6875 C17.97796723 8.36906806 19.14382643 9.04996625 20.31005859 9.73022461 C22.70813958 11.13048155 25.10384 12.53468172 27.49755859 13.94238281 C30.72916218 15.84241265 33.96699621 17.73156337 37.20703125 19.6171875 C42.15914242 22.49934709 47.10728315 25.38823145 52.05419922 28.27929688 C54.97394319 29.98477968 57.8949316 31.68810877 60.81640625 33.390625 C72.34008952 40.1065222 83.8524979 46.84135372 95.35736084 53.5894165 C106.58830005 60.17646352 117.83139613 66.74246939 129.08056641 73.29833984 C134.0545118 76.19752026 139.0271817 79.09888692 144 82 C145.9999941 83.16667678 147.99999409 84.33334346 150 85.5 C168 96 168 96 186 106.5 C186.99032227 107.07766113 187.98064453 107.65532227 189.00097656 108.25048828 C190.99781585 109.41536538 192.99456089 110.58040404 194.99121094 111.74560547 C200.0388033 114.69099501 205.0880823 117.63342181 210.140625 120.5703125 C215.1264848 123.46947414 220.10760455 126.37658791 225.08398438 129.29199219 C227.05306348 130.44534763 229.02314138 131.59699932 230.99414062 132.74707031 C233.83406536 134.40697352 236.66782992 136.07690853 239.5 137.75 C240.36141602 138.25160645 241.22283203 138.75321289 242.11035156 139.27001953 C242.88862305 139.73263184 243.66689453 140.19524414 244.46875 140.671875 C245.15388672 141.0750293 245.83902344 141.47818359 246.54492188 141.89355469 C247.02509766 142.25868164 247.50527344 142.62380859 248 143 C248 143.66 248 144.32 248 145 C245.68701172 146.58129883 245.68701172 146.58129883 242.4296875 148.45703125 C241.84615509 148.79598923 241.26262268 149.1349472 240.66140747 149.48417664 C238.73645568 150.60042546 236.80574608 151.70630888 234.875 152.8125 C233.53468704 153.587731 232.19484654 154.3637794 230.85546875 155.140625 C228.15883016 156.70412888 225.46043778 158.2645351 222.76074219 159.82275391 C217.81897898 162.67890973 212.90804076 165.58637626 208 168.5 C189.74062516 179.30886731 171.41927659 190.01285312 153.0871582 200.69775391 C142.23846631 207.02294076 131.40665975 213.3768712 120.57489014 219.73097229 C116.27131554 222.2552264 111.96609255 224.77665209 107.66015625 227.296875 C105.23165751 228.71855652 102.80327971 230.1404444 100.375 231.5625 C99.77510254 231.91379974 99.17520508 232.26509949 98.55712891 232.62704468 C89.79047264 237.76230168 81.04646474 242.9342912 72.3125 248.125 C62.40450032 254.01187012 52.4470552 259.80653283 42.45239258 265.54492188 C34.37999765 270.18489668 26.35704982 274.90358814 18.37768555 279.7019043 C12.71192931 283.08278722 6.94039881 286.12933387 1 289 C0 288 0 288 -0.1241985 286.02913707 C-0.12381878 285.15464115 -0.12343906 284.28014523 -0.12304783 283.37914944 C-0.12503888 282.37394046 -0.12702993 281.36873149 -0.12908131 280.33306164 C-0.12616847 279.21538137 -0.12325563 278.0977011 -0.12025452 276.94615173 C-0.12110894 275.76923423 -0.12196337 274.59231672 -0.12284368 273.37973505 C-0.12421186 270.09831915 -0.12106442 266.81696215 -0.11606562 263.53555334 C-0.1117644 260.00247722 -0.11320731 256.46940307 -0.1139679 252.93632507 C-0.11449334 246.81016034 -0.11134441 240.68400622 -0.10573006 234.55784416 C-0.09761782 225.70034167 -0.09500012 216.84284433 -0.09374207 207.98533852 C-0.09155111 193.61611795 -0.08488985 179.24690304 -0.07543945 164.87768555 C-0.06626646 150.91577177 -0.05918508 136.95385954 -0.05493164 122.99194336 C-0.05466892 122.13195136 -0.05440619 121.27195935 -0.05413551 120.38590699 C-0.05283051 116.07176511 -0.05156679 111.75762322 -0.05032361 107.44348133 C-0.03994964 71.62898355 -0.02233014 35.81449222 0 0 Z" 
    fill="#ffffff" transform="translate(401,368)" />
</svg>
