<?xml version="1.0" encoding="UTF-8"?>
<svg version="1.1" xmlns="http://www.w3.org/2000/svg" width="512" height="512">
<path d="M0 0 C1.45108658 0.00273422 1.45108658 0.00273422 2.93148804 0.00552368 C17.26440977 0.05095174 31.21023917 0.55983928 45.3125 3.3125 C46.65803955 3.55395752 46.65803955 3.55395752 48.03076172 3.80029297 C96.71843124 12.61028149 141.74255908 36.05356547 177.3125 70.3125 C178.3015332 71.26068604 178.3015332 71.26068604 179.31054688 72.22802734 C188.79880305 81.37247479 197.5387044 90.66984009 205.3125 101.3125 C206.17056152 102.46355017 207.02863451 103.61459177 207.88671875 104.765625 C213.92427396 112.95525981 219.30707302 121.45788276 224.3125 130.3125 C224.7146875 131.01971191 225.116875 131.72692383 225.53125 132.45556641 C238.54775099 155.57510937 247.281052 180.72419753 252.625 206.6875 C252.77235596 207.39801514 252.91971191 208.10853027 253.0715332 208.84057617 C256.05794017 224.48291051 256.68730954 240.11926093 256.625 256 C256.62226578 257.45108658 256.62226578 257.45108658 256.61947632 258.93148804 C256.57404826 273.26440977 256.06516072 287.21023917 253.3125 301.3125 C253.15152832 302.20952637 252.99055664 303.10655273 252.82470703 304.03076172 C244.01471851 352.71843124 220.57143453 397.74255908 186.3125 433.3125 C185.68037598 433.97185547 185.04825195 434.63121094 184.39697266 435.31054688 C175.25252521 444.79880305 165.95515991 453.5387044 155.3125 461.3125 C154.16144983 462.17056152 153.01040823 463.02863451 151.859375 463.88671875 C143.66974019 469.92427396 135.16711724 475.30707302 126.3125 480.3125 C125.60528809 480.7146875 124.89807617 481.116875 124.16943359 481.53125 C101.04989063 494.54775099 75.90080247 503.281052 49.9375 508.625 C49.22698486 508.77235596 48.51646973 508.91971191 47.78442383 509.0715332 C32.14208949 512.05794017 16.50573907 512.68730954 0.625 512.625 C-0.34239105 512.62317719 -1.3097821 512.62135437 -2.30648804 512.61947632 C-16.63940977 512.57404826 -30.58523917 512.06516072 -44.6875 509.3125 C-45.58452637 509.15152832 -46.48155273 508.99055664 -47.40576172 508.82470703 C-96.09343124 500.01471851 -141.11755908 476.57143453 -176.6875 442.3125 C-177.34685547 441.68037598 -178.00621094 441.04825195 -178.68554688 440.39697266 C-188.17380305 431.25252521 -196.9137044 421.95515991 -204.6875 411.3125 C-205.54556152 410.16144983 -206.40363451 409.01040823 -207.26171875 407.859375 C-213.29927396 399.66974019 -218.68207302 391.16711724 -223.6875 382.3125 C-224.0896875 381.60528809 -224.491875 380.89807617 -224.90625 380.16943359 C-237.92275099 357.04989063 -246.656052 331.90080247 -252 305.9375 C-252.22103394 304.87172729 -252.22103394 304.87172729 -252.4465332 303.78442383 C-255.43294017 288.14208949 -256.06230954 272.50573907 -256 256.625 C-255.99817719 255.65760895 -255.99635437 254.6902179 -255.99447632 253.69351196 C-255.94904826 239.36059023 -255.44016072 225.41476083 -252.6875 211.3125 C-252.44604248 209.96696045 -252.44604248 209.96696045 -252.19970703 208.59423828 C-243.38971851 159.90656876 -219.94643453 114.88244092 -185.6875 79.3125 C-185.05537598 78.65314453 -184.42325195 77.99378906 -183.77197266 77.31445312 C-174.62752521 67.82619695 -165.33015991 59.0862956 -154.6875 51.3125 C-153.53644983 50.45443848 -152.38540823 49.59636549 -151.234375 48.73828125 C-143.04474019 42.70072604 -134.54211724 37.31792698 -125.6875 32.3125 C-124.98028809 31.9103125 -124.27307617 31.508125 -123.54443359 31.09375 C-100.42489063 18.07724901 -75.27580247 9.343948 -49.3125 4 C-48.24672729 3.77896606 -48.24672729 3.77896606 -47.15942383 3.5534668 C-31.51708949 0.56705983 -15.88073907 -0.06230954 0 0 Z M-136.6875 79.3125 C-137.57566406 80.00730469 -138.46382813 80.70210937 -139.37890625 81.41796875 C-149.88577637 89.81428854 -160.18567299 98.85683696 -168.6875 109.3125 C-169.65939786 110.46157938 -170.63214191 111.60994328 -171.60546875 112.7578125 C-209.28294485 157.61516607 -227.94366113 216.31355343 -223.2265625 274.734375 C-219.08000606 318.02534351 -203.7027847 359.09953732 -176.6875 393.3125 C-175.99269531 394.20066406 -175.29789063 395.08882813 -174.58203125 396.00390625 C-166.18571146 406.51077637 -157.14316304 416.81067299 -146.6875 425.3125 C-145.53842062 426.28439786 -144.39005672 427.25714191 -143.2421875 428.23046875 C-98.38483393 465.90794485 -39.68644657 484.56866113 18.734375 479.8515625 C62.02534351 475.70500606 103.09953732 460.3277847 137.3125 433.3125 C138.20066406 432.61769531 139.08882813 431.92289062 140.00390625 431.20703125 C150.51077637 422.81071146 160.81067299 413.76816304 169.3125 403.3125 C170.28439786 402.16342062 171.25714191 401.01505672 172.23046875 399.8671875 C209.90794485 355.00983393 228.56866113 296.31144657 223.8515625 237.890625 C219.70500606 194.59965649 204.3277847 153.52546268 177.3125 119.3125 C176.61769531 118.42433594 175.92289062 117.53617187 175.20703125 116.62109375 C166.81071146 106.11422363 157.76816304 95.81432701 147.3125 87.3125 C146.16342062 86.34060214 145.01505672 85.36785809 143.8671875 84.39453125 C67.4965631 20.24780508 -46.29342518 14.75986425 -136.6875 79.3125 Z " fill="#000000" transform="translate(255.6875,-0.3125)"/>
<path d="M0 0 C11.24263039 5.62131519 11.24263039 5.62131519 15.3125 8.0234375 C16.2288623 8.56154053 17.14522461 9.09964355 18.08935547 9.65405273 C19.04986816 10.22196533 20.01038086 10.78987793 21 11.375 C23.12726524 12.62427522 25.25488158 13.87295275 27.3828125 15.12109375 C29.01911621 16.08184814 29.01911621 16.08184814 30.68847656 17.06201172 C36.07000879 20.21142213 41.47195024 23.32519307 46.875 26.4375 C47.95394531 27.05931152 49.03289062 27.68112305 50.14453125 28.32177734 C52.33550936 29.58432523 54.52659019 30.84669488 56.71777344 32.10888672 C62.14659942 35.23680148 67.57319281 38.36858448 73 41.5 C75.16665583 42.75001879 77.3333225 44.00001878 79.5 45.25 C92.5 52.75 105.5 60.25 118.5 67.75 C119.5739502 68.36955566 120.64790039 68.98911133 121.75439453 69.62744141 C123.9065213 70.86911527 126.05854073 72.11097522 128.21044922 73.35302734 C133.25030977 76.26166823 138.29117492 79.16851898 143.33599854 82.06854248 C145.11749578 83.09275665 146.89864322 84.11757651 148.6796875 85.14257812 C150.91076625 86.42633375 153.14249573 87.70895939 155.375 88.99023438 C160.98865365 92.22201335 166.53291438 95.52571298 172 99 C170.78416075 102.64751775 169.99712003 102.85255743 166.71484375 104.64453125 C165.80452393 105.14895752 164.8942041 105.65338379 163.95629883 106.1730957 C162.96009521 106.71409912 161.9638916 107.25510254 160.9375 107.8125 C158.81423372 108.98801246 156.69186414 110.1651458 154.5703125 111.34375 C153.4762207 111.94960938 152.38212891 112.55546875 151.25488281 113.1796875 C146.23328177 115.98804764 141.27283958 118.89771275 136.3125 121.8125 C127.57449896 126.9333917 118.79984375 131.98647309 110 137 C100.27865901 142.53968899 90.59104908 148.13375063 80.93310547 153.78344727 C70.4193497 159.931705 59.86670394 166.01197929 49.31298828 172.09130859 C44.83581316 174.67071575 40.35977374 177.25208888 35.8840332 179.83398438 C33.69395129 181.097326 31.50368846 182.36035405 29.31323242 183.62304688 C24.26331624 186.53507346 19.21691424 189.45278836 14.1796875 192.38671875 C12.84442017 193.16354004 12.84442017 193.16354004 11.48217773 193.95605469 C9.82695518 194.91968229 8.17276319 195.88508301 6.51977539 196.85253906 C1.11106124 200 1.11106124 200 0 200 C0 134 0 68 0 0 Z " fill="#000000" transform="translate(191,156)"/>
</svg>
