<?xml version="1.0" encoding="UTF-8"?>
<svg version="1.1" xmlns="http://www.w3.org/2000/svg" width="512" height="512">
<path d="M0 0 C10.52767894 8.82540118 17.30811582 19.756687 19.875 33.3125 C20.14301876 36.44185144 20.1540096 39.55145893 20.14242554 42.69096375 C20.14695665 43.60334252 20.15148776 44.51572129 20.15615618 45.4557479 C20.16876063 48.49618567 20.16718236 51.53644339 20.16552734 54.5769043 C20.17151512 56.7638624 20.17832123 58.95081838 20.18588257 61.13777161 C20.20352579 67.06774503 20.20823729 72.99766071 20.20951414 78.92765784 C20.21093741 82.63647354 20.21521037 86.34527463 20.22050858 90.05408669 C20.2380505 102.33658174 20.24734951 114.61904163 20.24584763 126.90154936 C20.24576772 127.56269774 20.2456878 128.22384612 20.24560547 128.9050293 C20.24552371 129.56699296 20.24544195 130.22895662 20.24535771 130.91097979 C20.24459596 140.96341191 20.26017709 151.01571967 20.28662109 161.06811523 C20.31727852 172.76253677 20.33413547 184.45686643 20.33269465 196.15133029 C20.33218589 202.33383254 20.33782179 208.5161755 20.35905075 214.69864464 C20.37848564 220.51737075 20.37852155 226.33578647 20.36401749 232.15452385 C20.36193472 234.28248806 20.3665983 236.41047196 20.3787384 238.53840256 C20.48087732 257.69164321 17.62301695 272.64789582 4.140625 287.2109375 C-7.88734073 298.36791261 -22.50569422 302.86786987 -38.6171875 302.5546875 C-56.09607448 301.34790466 -70.82942155 290.83586654 -85.515625 282.1875 C-92.31030312 278.19110833 -99.15073788 274.27672118 -106 270.375 C-108.37002843 269.0238524 -110.73978527 267.67222932 -113.109375 266.3203125 C-113.69456909 265.98645538 -114.27976318 265.65259827 -114.88269043 265.30862427 C-124.24430656 259.96452085 -133.57382553 254.56455445 -142.90722656 249.17138672 C-147.22747643 246.67560656 -151.54922987 244.18243703 -155.87109375 241.68945312 C-159.11996496 239.81540437 -162.36857632 237.94090572 -165.6171875 236.06640625 C-169.97565388 233.55180564 -174.33512191 231.03895339 -178.6953125 228.52734375 C-191.2410224 221.29890959 -203.77756058 214.055391 -216.26953125 206.734375 C-220.23426538 204.41115895 -224.21194718 202.11242589 -228.19921875 199.828125 C-230.15373046 198.69806303 -232.10816071 197.56786014 -234.0625 196.4375 C-235.38459473 195.68895752 -235.38459473 195.68895752 -236.73339844 194.92529297 C-251.92258981 186.08874037 -260.85126845 174.31945236 -265.66918945 157.40161133 C-268.63443373 143.81104074 -266.07994857 129.04347367 -259.375 117.0625 C-252.64177897 106.74600541 -244.64394868 100.46993337 -234.125 94.3125 C-233.21395508 93.77882813 -232.30291016 93.24515625 -231.36425781 92.6953125 C-225.36238901 89.19341174 -219.33984607 85.72836098 -213.30770874 82.27890015 C-207.2369776 78.80709593 -201.18086386 75.31014899 -195.125 71.8125 C-192.96101355 70.56367029 -190.79695089 69.31497264 -188.6328125 68.06640625 C-187.0245459 67.13852295 -187.0245459 67.13852295 -185.38378906 66.19189453 C-182.10800434 64.30269834 -178.83144107 62.41485891 -175.5546875 60.52734375 C-165.10293721 54.50502625 -154.66206885 48.46569743 -144.25 42.375 C-134.4373053 36.63712341 -124.57804561 30.98299919 -114.70336914 25.3527832 C-107.78297157 21.4063817 -100.87160663 17.4450818 -93.97338867 13.45996094 C-91.79909927 12.20440129 -89.62349836 10.95110983 -87.4465332 9.70019531 C-82.39011977 6.79263146 -77.35424782 3.85987738 -72.359375 0.84765625 C-48.73907014 -13.28554719 -23.36388086 -17.66537333 0 0 Z " fill="#000000" transform="translate(420.125,110.6875)"/>
<path d="M0 0 C3.99912959 3.70651036 7.34532696 7.84320811 7.69130117 13.46963805 C7.69308974 14.28435822 7.69487831 15.09907839 7.69672108 15.93848705 C7.70117892 16.88004341 7.70563676 17.82159977 7.71022969 18.79168814 C7.71004533 19.8280487 7.70986097 20.86440926 7.70967102 21.93217468 C7.71334771 23.03165257 7.7170244 24.13113045 7.7208125 25.26392585 C7.73187117 28.96721499 7.73569688 32.6704761 7.73950195 36.3737793 C7.74576493 39.02130806 7.75239863 41.66883381 7.75941467 44.31636047 C7.77917745 52.27516869 7.78924518 60.23397817 7.79814246 68.19280478 C7.80252578 71.94095916 7.80789249 75.68911213 7.81313133 79.4372654 C7.83014364 91.89743475 7.84463766 104.35760322 7.85188007 116.8177824 C7.85378996 120.0512918 7.85571029 123.28480118 7.85766602 126.51831055 C7.85814976 127.32198155 7.8586335 128.12565255 7.8591319 128.95367721 C7.86743164 141.97171026 7.89276759 154.9896514 7.92524669 168.00764432 C7.95832192 181.37356645 7.97632926 194.73944188 7.97952431 208.10540515 C7.98168902 215.60964679 7.99043172 223.11375442 8.01598549 230.61795616 C8.03769888 237.00913946 8.04573984 243.4001562 8.03601871 249.7913722 C8.03147571 253.05118722 8.03554446 256.31058708 8.05278015 259.57036972 C8.0704393 263.10817261 8.06342121 266.64510398 8.05024719 270.1829071 C8.06121644 271.20811405 8.07218568 272.233321 8.08348733 273.28959483 C8.02790188 279.4732875 7.15383083 284.23533992 3.5625 289.375 C-1.50997904 294.08515911 -4.83692297 294.73708216 -11.609375 294.6484375 C-15.99011717 294.22488508 -17.97381339 293.13181179 -21.4375 290.375 C-25.82429369 284.37766501 -26.00794822 279.47114351 -25.94543457 272.17822266 C-25.95167453 271.0582873 -25.9579145 269.93835194 -25.96434355 268.78447914 C-25.98028456 265.0357921 -25.96766421 261.28775425 -25.95507812 257.5390625 C-25.96049874 254.84989528 -25.96747645 252.16077262 -25.97631836 249.47161865 C-25.99408899 242.92824916 -25.99027017 236.38506337 -25.9786678 229.84168673 C-25.96962798 224.5229622 -25.96841184 219.20428909 -25.97276306 213.88555908 C-25.97337599 213.12807959 -25.97398893 212.3706001 -25.97462043 211.59016669 C-25.97589936 210.05127953 -25.97719621 208.51239239 -25.9785108 206.97350526 C-25.98991232 192.54911695 -25.97680962 178.12483039 -25.95530933 163.70045877 C-25.93743872 151.32824969 -25.94054294 138.95619074 -25.95898438 126.58398438 C-25.98039866 112.21061672 -25.98881373 97.83733821 -25.97653532 83.46395683 C-25.97526115 81.93078488 -25.97400366 80.3976129 -25.97276306 78.86444092 C-25.97214596 78.1101246 -25.97152886 77.35580829 -25.97089306 76.5786339 C-25.96744183 71.26734628 -25.97326359 65.95611528 -25.98268127 60.64483643 C-25.99390886 54.17061707 -25.99084538 47.69659165 -25.9695583 41.22239447 C-25.95905785 37.92016701 -25.95706778 34.6183289 -25.96815491 31.31609344 C-25.97907245 27.7343316 -25.96539081 24.15348101 -25.94543457 20.57177734 C-25.95435746 19.53082224 -25.96328034 18.48986713 -25.97247362 17.41736794 C-25.90512937 11.1931614 -25.14115301 7.4383901 -21.4375 2.375 C-15.04021872 -2.71671367 -7.45224674 -3.52288028 0 0 Z " fill="#000000" transform="translate(97.4375,109.625)"/>
</svg>
